{"asset":{"version":"2.0","generator":"Blockbench 4.12.4 glTF exporter"},"scenes":[{"nodes":[3],"name":"blockbench_export"}],"scene":0,"nodes":[{"translation":[0,1.0625,0],"name":"body","mesh":0},{"translation":[0.125,0.9375,-0.3125],"name":"eys","mesh":1},{"rotation":[0.08713500204105382,0.021731872810910755,0.001901292508141947,0.9959576307304616],"translation":[0,1.125,0],"name":"hat","mesh":2},{"children":[0,1,2]}],"bufferViews":[{"buffer":0,"byteOffset":0,"byteLength":114048,"target":34962,"byteStride":12},{"buffer":0,"byteOffset":114048,"byteLength":114048,"target":34962,"byteStride":12},{"buffer":0,"byteOffset":228096,"byteLength":76032,"target":34962,"byteStride":8},{"buffer":0,"byteOffset":304128,"byteLength":27648,"target":34963},{"buffer":0,"byteOffset":331776,"byteLength":6336,"target":34962,"byteStride":12},{"buffer":0,"byteOffset":338112,"byteLength":6336,"target":34962,"byteStride":12},{"buffer":0,"byteOffset":344448,"byteLength":4224,"target":34962,"byteStride":8},{"buffer":0,"byteOffset":348672,"byteLength":1440,"target":34963},{"buffer":0,"byteOffset":350112,"byteLength":1296,"target":34962,"byteStride":12},{"buffer":0,"byteOffset":351408,"byteLength":1296,"target":34962,"byteStride":12},{"buffer":0,"byteOffset":352704,"byteLength":864,"target":34962,"byteStride":8},{"buffer":0,"byteOffset":353568,"byteLength":216,"target":34963}],"buffers":[{"byteLength":353784,"uri":"data:application/octet-stream;base64,"}],"accessors":[{"bufferView":0,"componentType":5126,"count":9504,"max":[0.3125,0.25,0.3125],"min":[-0.3125,-1,-0.3125],"type":"VEC3"},{"bufferView":1,"componentType":5126,"count":9504,"max":[1,1,1],"min":[-1,-1,-1],"type":"VEC3"},{"bufferView":2,"componentType":5126,"count":9504,"max":[0.7430465221405029,0.828125],"min":[0.00007968750287545845,0],"type":"VEC2"},{"bufferView":3,"componentType":5123,"count":13824,"max":[9503],"min":[0],"type":"SCALAR"},{"bufferView":4,"componentType":5126,"count":528,"max":[0.125,0.125,0.0625],"min":[-0.375,-0.125,-0.0625],"type":"VEC3"},{"bufferView":5,"componentType":5126,"count":528,"max":[0.9659258127212524,0.9659258127212524,0.9911444187164307],"min":[-0.9659258127212524,-0.9659258127212524,-0.9911444187164307],"type":"VEC3"},{"bufferView":6,"componentType":5126,"count":528,"max":[0.5377081036567688,0.5169320106506348],"min":[0,0.000059664249420166016],"type":"VEC2"},{"bufferView":7,"componentType":5123,"count":720,"max":[527],"min":[0],"type":"SCALAR"},{"bufferView":8,"componentType":5126,"count":108,"max":[0.5625,0.75,0.5625],"min":[-0.5625,0,-0.5625],"type":"VEC3"},{"bufferView":9,"componentType":5126,"count":108,"max":[0.905458927154541,1,0.905458927154541],"min":[-0.905458927154541,-1,-0.905458927154541],"type":"VEC3"},{"bufferView":10,"componentType":5126,"count":108,"max":[0.45254355669021606,0.578125],"min":[0,0],"type":"VEC2"},{"bufferView":11,"componentType":5123,"count":108,"max":[107],"min":[0],"type":"SCALAR"}],"materials":[{"pbrMetallicRoughness":{"metallicFactor":0,"roughnessFactor":1,"baseColorTexture":{"index":0}},"alphaMode":"MASK","alphaCutoff":0.05,"doubleSided":true},{"pbrMetallicRoughness":{"metallicFactor":0,"roughnessFactor":1,"baseColorTexture":{"index":1}},"alphaMode":"MASK","alphaCutoff":0.05,"doubleSided":true},{"pbrMetallicRoughness":{"metallicFactor":0,"roughnessFactor":1,"baseColorTexture":{"index":2}},"alphaMode":"MASK","alphaCutoff":0.05,"doubleSided":true}],"textures":[{"sampler":0,"source":0,"name":"texture"},{"sampler":1,"source":1,"name":"texture"},{"sampler":2,"source":2,"name":"texture"}],"samplers":[{"magFilter":9728,"minFilter":9728,"wrapS":33071,"wrapT":33071},{"magFilter":9728,"minFilter":9728,"wrapS":33071,"wrapT":33071},{"magFilter":9728,"minFilter":9728,"wrapS":33071,"wrapT":33071}],"images":[{"mimeType":"image/png","uri":"data:image/png;base64,"},{"mimeType":"image/png","uri":"data:image/png;base64,"},{"mimeType":"image/png","uri":"data:image/png;base64,"}],"meshes":[{"primitives":[{"mode":4,"attributes":{"POSITION":0,"NORMAL":1,"TEXCOORD_0":2},"indices":3,"material":0}]},{"primitives":[{"mode":4,"attributes":{"POSITION":4,"NORMAL":5,"TEXCOORD_0":6},"indices":7,"material":1}]},{"primitives":[{"mode":4,"attributes":{"POSITION":8,"NORMAL":9,"TEXCOORD_0":10},"indices":11,"material":2}]}]}